<svg width="704" height="704" viewBox="0 0 704 704" fill="none" xmlns="http://www.w3.org/2000/svg">
<path fill-rule="evenodd" clip-rule="evenodd" d="M0 352V704H352H704V352V0H352H0V352Z" fill="white"/>
<path d="M183.869 486.995C184.41 481.75 184.63 481.176 185.283 483.312C185.708 484.704 186.675 490.17 187.431 495.46C189.132 507.353 188.666 529.565 186.521 538.863C182.718 555.345 175.165 567.64 165.195 573.574C159.973 576.681 158.606 577.034 151.939 576.997C142.719 576.946 136.745 573.957 129.675 565.858C124.461 559.885 119.159 550.726 119.981 549.113C120.266 548.554 121.773 547.766 123.329 547.361C124.886 546.956 128.57 545.307 131.517 543.697L136.878 540.771L140.147 545.509C144.476 551.781 148.026 554.277 152.631 554.281C157.322 554.286 160.119 552.531 164.718 546.697C169.283 540.907 172.457 534.703 175.698 525.233C178.527 516.967 182.877 496.612 183.869 486.995ZM323.174 428.428C329.884 426.886 329.678 426.743 330.764 433.664C332.253 443.154 336.224 452.272 342.737 461.156C352.025 473.826 354.183 481.104 351.599 491.051C349.463 499.278 343.081 508.931 331.801 520.995C305.022 549.634 299.247 556.657 295.458 565.192C294.032 568.402 293.94 568.448 293.644 566.118C293.038 561.35 295.396 549.011 298.33 541.595C302.952 529.913 305.898 525.367 320.718 507.063C329.387 496.359 334.531 489.205 334.532 487.857C334.532 486.676 333.08 483.161 331.306 480.047C318.781 458.064 315.431 449.573 313.953 436.075L313.354 430.61L316.298 429.971C317.918 429.618 321.012 428.924 323.174 428.428ZM356.53 415.697C356.855 415.672 358.526 418.451 360.243 421.874C365.003 431.366 374.055 441.898 383.459 448.885C393.498 456.343 396.287 459.326 398.402 464.86C402.76 476.261 399.344 484.795 379.05 513.203C368.58 527.86 359.178 543.712 355.124 553.54C352.554 559.772 351.054 562.396 350.585 561.477C349.141 558.65 349.153 541.152 350.604 534.131C353.582 519.719 361.892 503.247 375.41 484.968C378.854 480.311 381.681 476.141 381.691 475.7C381.701 475.259 378.859 472.699 375.377 470.011C367.14 463.65 359.539 455.782 352.972 446.823C347.503 439.359 341.059 426.046 341.794 423.727C342.024 422.998 343.925 421.782 346.017 421.025C348.11 420.27 351.198 418.771 352.88 417.697C354.561 416.623 356.204 415.724 356.53 415.697ZM286.852 430.592C287.063 430.18 290.113 430.192 293.629 430.618C297.144 431.044 300.48 431.423 301.043 431.459C301.802 431.507 301.831 432.546 301.157 435.493C300.657 437.676 300.473 442.796 300.749 446.87C301.167 453.066 302.041 456.199 306.095 466.017C311.665 479.506 312.252 484.729 309.086 492.652C306.265 499.709 300.083 504.826 280.364 516.431C262.351 527.032 252.897 533.784 248.977 538.849C246.067 542.609 245.399 542.282 246.46 537.617C250.009 522.006 260.909 509.398 281.752 496.798C290.473 491.525 295.216 487.266 295.216 484.707C295.216 483.794 293.627 478.866 291.684 473.759C287.258 462.119 285.202 449.727 285.934 439.105C286.229 434.837 286.642 431.007 286.852 430.592ZM174.257 378.81C177.405 374.377 185.974 366.578 186.714 367.473C186.915 367.719 185.889 371.396 184.433 375.645C180.208 387.977 179.03 396.994 178.168 423.626C176.702 468.881 171.35 487.241 152.926 510.224C126.536 543.147 91.7618 547.218 80.1871 518.74C77.6203 512.423 77.4748 511.445 77.8199 502.705C78.124 495 78.6736 492.139 81.0123 486.086C87.6471 468.912 102.384 452.573 121.99 440.652C128.93 436.432 140.927 430.467 142.474 430.467C143.014 430.467 140.891 432.818 137.757 435.692C119.338 452.582 101.593 477.203 97.3561 491.748C92.888 507.086 99.0192 516.876 111.393 514.166C118.912 512.518 129.557 505.719 136.401 498.19C139.632 494.636 144.627 487.469 147.503 482.262C155.456 467.859 157.685 457.642 159.768 426.04C161.092 405.96 165.742 390.804 174.257 378.81ZM244.451 317.253C245.121 317.24 243.727 319.731 241.351 322.786C232.014 334.801 222.733 352.251 218.334 366.071C214.593 377.818 212.486 389.392 210.896 406.909C208.544 432.819 205.3 443.996 197.056 454.595C193.391 459.307 187.026 465.389 185.76 465.389C185.606 465.389 186.828 460.508 188.476 454.542C191.425 443.869 191.485 443.29 192.195 418.567C192.592 404.748 193.33 390.678 193.836 387.302C199.127 351.949 213.252 330.096 237.515 319.72C240.659 318.376 243.78 317.266 244.451 317.253ZM102.351 402.47C108.603 400.43 124.255 400.449 132.474 402.506C138.625 404.044 150.627 409.113 149.981 409.899C149.828 410.084 144.706 410.758 138.599 411.395C120.918 413.24 108.743 417.822 101.744 425.264C97.6838 429.583 96.0162 434.043 96.0162 440.586C96.0162 445.32 95.795 445.734 89.3473 453.055C85.6787 457.22 82.4137 460.755 82.0905 460.912C81.09 461.395 78.724 454.323 77.6276 447.577C74.2849 426.992 84.5412 408.278 102.351 402.47ZM626.635 295.878C627.036 298.018 627.12 304.706 626.82 310.739C625.825 330.764 622.593 345.441 615.311 363.004C602.271 394.455 581.491 419.001 553.39 436.148C527.364 452.03 502.762 459.176 474.369 459.101C448.24 459.034 428.273 453.449 406.297 440.066C396.677 434.208 382.306 422.342 375.595 414.719C370.326 408.732 370.039 408.177 371.614 407.03C373.874 405.382 386.417 395.028 389.538 392.234L392.013 390.016L397.129 392.459C401.299 394.45 403.936 394.907 411.417 394.932C419.432 394.96 421.302 394.604 426.227 392.115C429.326 390.549 431.956 389.382 432.072 389.52C432.186 389.659 432.694 393.809 433.197 398.743C434.328 409.814 438.185 419.873 444.671 428.663C447.16 432.037 449.349 434.612 449.536 434.387C449.722 434.16 448.744 430.923 447.362 427.194C443.583 416.993 442.588 410.428 443.068 398.857C443.833 380.417 449.522 366.298 462.009 351.847C468.139 344.754 479.386 336.23 482.52 336.302C483.057 336.314 486.198 338.446 489.504 341.04C496.864 346.816 506.468 351.402 516.208 353.792C526.825 356.398 542.755 355.494 553.39 351.682C576.016 343.572 595.808 328.523 615.859 304.182L625.906 291.985L626.635 295.878ZM408.796 245.881C412.993 245.3 448.352 246.164 454.008 246.986C456.531 247.353 458.591 247.949 458.589 248.311C458.585 248.674 455.291 253.442 451.268 258.906L443.955 268.843L430.088 268.653C389.231 268.094 346.692 279.422 311.38 300.263C287.679 314.252 274.417 326.899 264.413 345.051C259.308 354.313 255.711 365.375 251.951 383.373C246.084 411.453 238.807 427.17 227.615 435.931C222.642 439.825 216.562 442.627 214.711 441.88C214.232 441.686 215.083 439.634 216.602 437.32C224.232 425.694 227.273 415.801 232.241 386.447C239.811 341.716 250.187 321.254 277.199 297.778C306.07 272.687 353.392 252.671 396.127 247.473C401.412 246.831 407.114 246.115 408.796 245.881ZM435.443 127.387C444.387 126.254 469.69 127.762 478.194 129.935C500.596 135.661 517.008 148.671 523.632 165.956C526.987 174.71 528.804 186.087 528.252 194.889C526.221 227.307 508.182 255.777 473.147 281.86L464.73 288.128L471.492 288.94C479.097 289.854 491.697 293.406 493.021 295.01C493.6 295.711 492.553 296.064 489.9 296.064C480.12 296.064 461.869 301.333 449.755 307.652C438.206 313.677 431.765 320.52 415.837 343.687C398.345 369.128 379.369 387.934 358.25 400.757C339.276 412.278 325.716 416.578 305.637 417.446C286.118 418.291 276.571 415.689 263.108 405.855C260.587 404.012 258.524 402.249 258.524 401.934C258.525 401.62 264.171 401.285 271.07 401.188C301.093 400.767 325.427 394.571 347.201 381.801C371.614 367.483 382.107 356.499 412.168 313.791C416.162 308.115 419.927 303.472 420.534 303.472C421.141 303.471 424.744 300.152 428.54 296.096C433.185 291.131 439.015 286.407 446.364 281.652C462.493 271.215 471.165 264.061 478.138 255.437C488.815 242.237 493.842 229.455 493.849 215.502C493.858 197.907 485.401 187.323 465.846 180.458C459.67 178.29 457.233 178.069 439.811 178.104C421.64 178.14 419.875 178.326 407.485 181.491C380.309 188.435 359.504 197.289 316.486 220.219C287.973 235.418 274.152 242.223 259.858 248.107C216.695 265.871 183.054 268.82 154.586 257.331C146.864 254.214 131.382 245.466 132.084 244.616C132.204 244.471 136.227 245.938 141.024 247.876C157.115 254.375 162.553 255.325 183.384 255.279C200.36 255.241 203.22 254.965 213.09 252.409C241 245.18 260.449 236.468 303.954 211.702C346.41 187.533 362.967 179.326 383.459 172.296C418.141 160.396 447.188 157.921 469.83 164.934C493.448 172.252 507.28 190.805 507.597 215.593L507.672 221.456L510.135 215.106C515.124 202.244 515.908 185.559 512.021 174.976C503.565 151.948 475.429 139.936 438.307 143.506C403.524 146.85 373.182 157.758 320.117 185.992C298.583 197.449 281.605 205.598 269.443 210.316C249.297 218.13 227.362 221.39 211.78 218.887C203.56 217.566 186.345 211.245 183.643 208.557C182.136 207.058 182.137 207.021 183.664 207.607C190.988 210.419 203.995 212.549 213.974 212.569C240.135 212.623 262.079 204.507 310.943 176.705C338.56 160.992 346.349 156.786 360.63 149.874C383.359 138.872 411.453 130.429 435.443 127.387ZM556.885 283.435C565.344 282.047 580.296 282.99 588.086 285.403C591.665 286.512 596.135 288.257 598.018 289.279C601.208 291.009 601.292 291.166 599.258 291.547C587.714 293.714 570.468 301.811 559.814 310.066C551.594 316.436 542.822 326.34 537.506 335.252L532.422 343.776L526.191 343.17C519.333 342.502 510.251 339.733 503.556 336.268C498.126 333.459 490.922 327.926 490.922 326.566C490.922 324.456 500.91 312.962 508.235 306.641C521.798 294.939 540.161 286.179 556.885 283.435ZM401.052 281.833C404.136 277.083 407.153 276.156 411.824 278.519C414.896 280.075 417.532 284.755 417.532 288.657C417.532 295.25 411.657 300.938 406.212 299.619C400.014 298.117 397.07 287.966 401.052 281.833Z" fill="#007DEB"/>
</svg>
